<svg height="480pt" viewBox="0 0 480.07994 480" width="480pt" xmlns="http://www.w3.org/2000/svg"><path d="m328 64.039062c0-31.398437-70.28125-56-160-56s-160 24.601563-160 56c.742188 9.648438 6.109375 18.339844 14.398438 23.328126 10.265624 7.296874 21.621093 12.921874 33.640624 16.671874 36.234376 11.246094 74.027344 16.648438 111.960938 16 20.183594.054688 40.34375-1.308593 60.335938-4.078124 17.539062-2.351563 34.816406-6.34375 51.609374-11.921876 30.984376-10.597656 48.054688-24.800781 48.054688-40zm0 0" fill="#78b9eb"/><path d="m360 248.039062c-11.707031-.03125-23.339844 1.828126-34.457031 5.503907-42.742188 13.679687-73.105469 51.667969-77.023438 96.378906-.351562 3.359375-.523437 6.738281-.519531 10.117187.078125 61.824219 50.175781 111.921876 112 112 61.855469 0 112-50.144531 112-112 0-61.855468-50.144531-112-112-112zm0 0" fill="#78b9eb"/><g fill="#1a6fb0"><path d="m360 240.039062c-8.0625-.015624-16.101562.785157-24 2.402344v-178.402344c0-41.597656-86.558594-63.9999995-168-63.9999995s-168 22.4023435-168 63.9999995v320c0 41.601563 86.558594 64 168 64 33.464844.273438 66.828125-3.730468 99.28125-11.917968 35.371094 43.144531 95.816406 56.222656 145.859375 31.550781s76.480469-80.578125 63.796875-134.914063c-12.683594-54.332031-61.144531-92.753906-116.9375-92.71875zm-192-224c89.601562 0 152 25.28125 152 48 0 11.199219-15.921875 23.28125-42.640625 32.402344-16.320313 5.421875-33.113281 9.304688-50.160156 11.597656-19.613281 2.71875-39.398438 4.054688-59.199219 4-37.050781.640626-73.964844-4.625-109.359375-15.597656-11.191406-3.492187-21.769531-8.699218-31.359375-15.441406-6.15625-3.628906-10.3125-9.878906-11.28125-16.960938 0-22.71875 62.398438-48 152-48zm-152 76.160157c11.28125 8.613281 23.976562 15.191406 37.519531 19.441406 17.164063 5.664063 34.8125 9.734375 52.71875 12.160156 20.460938 2.875 41.101563 4.292969 61.761719 4.238281 38.789062.625 77.425781-4.910156 114.480469-16.398437 13.542969-4.25 26.238281-10.828125 37.519531-19.441406v51.839843c0 22.722657-62.398438 48-152 48s-152-25.277343-152-48zm0 80.320312c28.71875 23.199219 91.761719 35.519531 152 35.519531s123.28125-12.320312 152-35.519531v51.519531c0 22.722657-62.398438 48-152 48s-152-25.277343-152-48zm0 80c28.71875 23.199219 91.761719 35.519531 152 35.519531 36.945312.367188 73.75-4.589843 109.28125-14.71875-20.195312 19.148438-33.046875 44.761719-36.320312 72.398438-24.085938 4.273438-48.5 6.390625-72.960938 6.320312-89.601562 0-152-25.277343-152-48zm152 179.519531c-89.601562 0-152-25.277343-152-48v-51.519531c28.71875 23.199219 91.761719 35.519531 152 35.519531 24.152344.035157 48.265625-1.972656 72.078125-6 .363281 21.25 6.382813 42.015626 17.441406 60.160157-29.351562 6.765625-59.398437 10.066406-89.519531 9.839843zm192 32c-57.402344-.082031-103.917969-46.597656-104-104 0-3.097656.160156-6.195312.480469-9.277343 3.707031-41.511719 31.863281-76.785157 71.519531-89.601563 10.324219-3.414062 21.128906-5.144531 32-5.121094 57.4375 0 104 46.5625 104 104s-46.5625 104-104 104zm0 0"/><path d="m440 352.039062v16h-72v64h-16v-64h-72v-16h72v-72h16v72zm0 0"/></g></svg>